<?xml version="1.0" encoding="UTF-8" standalone="no"?>
<!DOCTYPE svg PUBLIC "-//W3C//DTD SVG 1.1//EN"
 "http://www.w3.org/Graphics/SVG/1.1/DTD/svg11.dtd">
<!-- Generated by graphviz version 3.0.0 (20220226.1711)
 -->
<!-- Title: G Pages: 1 -->
<svg width="10236pt" height="8462pt"
 viewBox="3600.00 3600.00 6636.00 4862.00" xmlns="http://www.w3.org/2000/svg" xmlns:xlink="http://www.w3.org/1999/xlink">
<g id="graph0" class="graph" transform="scale(1 1) rotate(0) translate(3604 4858)">
<title>G</title>
<polygon fill="white" stroke="transparent" points="-4,4 -4,-1258 3032,-1258 3032,4 -4,4"/>
<g id="clust1" class="cluster">
<title>cluster_docker</title>
<path fill="none" stroke="black" stroke-width="5" d="M20,-442C20,-442 1862,-442 1862,-442 1868,-442 1874,-448 1874,-454 1874,-454 1874,-843 1874,-843 1874,-849 1868,-855 1862,-855 1862,-855 20,-855 20,-855 14,-855 8,-849 8,-843 8,-843 8,-454 8,-454 8,-448 14,-442 20,-442"/>
<text text-anchor="middle" x="941" y="-839.8" font-family="Arial" font-size="14.00">Docker Network</text>
</g>
<g id="clust2" class="cluster">
<title>cluster_services</title>
<path fill="none" stroke="black" stroke-width="5" d="M1548,-907C1548,-907 2244,-907 2244,-907 2250,-907 2256,-913 2256,-919 2256,-919 2256,-1234 2256,-1234 2256,-1240 2250,-1246 2244,-1246 2244,-1246 1548,-1246 1548,-1246 1542,-1246 1536,-1240 1536,-1234 1536,-1234 1536,-919 1536,-919 1536,-913 1542,-907 1548,-907"/>
<text text-anchor="middle" x="1896" y="-1230.8" font-family="Arial" font-size="14.00">Services</text>
</g>
<g id="clust3" class="cluster">
<title>cluster_aws</title>
<path fill="none" stroke="black" stroke-width="5" d="M2312,-8C2312,-8 3008,-8 3008,-8 3014,-8 3020,-14 3020,-20 3020,-20 3020,-479 3020,-479 3020,-485 3014,-491 3008,-491 3008,-491 2312,-491 2312,-491 2306,-491 2300,-485 2300,-479 2300,-479 2300,-20 2300,-20 2300,-14 2306,-8 2312,-8"/>
<text text-anchor="middle" x="2660" y="-475.8" font-family="Arial" font-size="14.00">AWS</text>
</g>
<g id="clust4" class="cluster">
<title>cluster_cron</title>
<path fill="none" stroke="black" stroke-width="5" d="M2312,-617C2312,-617 2626,-617 2626,-617 2632,-617 2638,-623 2638,-629 2638,-629 2638,-1232 2638,-1232 2638,-1238 2632,-1244 2626,-1244 2626,-1244 2312,-1244 2312,-1244 2306,-1244 2300,-1238 2300,-1232 2300,-1232 2300,-629 2300,-629 2300,-623 2306,-617 2312,-617"/>
<text text-anchor="middle" x="2469" y="-1228.8" font-family="Arial" font-size="14.00">Cronjobs Node.js</text>
</g>
<!-- spa -->
<g id="node1" class="node">
<title>spa</title>
<path fill="none" stroke="lightblue" stroke-width="5" d="M666,-727C666,-727 452,-727 452,-727 446,-727 440,-721 440,-715 440,-715 440,-667 440,-667 440,-661 446,-655 452,-655 452,-655 666,-655 666,-655 672,-655 678,-661 678,-667 678,-667 678,-715 678,-715 678,-721 672,-727 666,-727"/>
<text text-anchor="middle" x="559" y="-694.8" font-family="Arial" font-size="14.00">CMS SPA</text>
<text text-anchor="middle" x="559" y="-679.8" font-family="Arial" font-size="14.00">Web Frontend</text>
</g>
<!-- api -->
<g id="node4" class="node">
<title>api</title>
<path fill="none" stroke="lightblue" stroke-width="5" d="M1812,-564C1812,-564 1598,-564 1598,-564 1592,-564 1586,-558 1586,-552 1586,-552 1586,-504 1586,-504 1586,-498 1592,-492 1598,-492 1598,-492 1812,-492 1812,-492 1818,-492 1824,-498 1824,-504 1824,-504 1824,-552 1824,-552 1824,-558 1818,-564 1812,-564"/>
<text text-anchor="middle" x="1705" y="-524.3" font-family="Arial" font-size="14.00">API</text>
</g>
<!-- spa&#45;&gt;api -->
<g id="edge10" class="edge">
<title>spa&#45;&gt;api</title>
<path fill="none" stroke="black" stroke-width="2" d="M688.18,-663C688.18,-663 1646,-663 1646,-663 1646,-663 1646,-574.18 1646,-574.18"/>
<polygon fill="black" stroke="black" stroke-width="2" points="688.18,-659.5 678.18,-663 688.18,-666.5 688.18,-659.5"/>
<polygon fill="black" stroke="black" stroke-width="2" points="1649.5,-574.18 1646,-564.18 1642.5,-574.18 1649.5,-574.18"/>
</g>
<!-- mailer -->
<g id="node5" class="node">
<title>mailer</title>
<path fill="none" stroke="lightblue" stroke-width="5" d="M1048,-782C1048,-782 834,-782 834,-782 828,-782 822,-776 822,-770 822,-770 822,-722 822,-722 822,-716 828,-710 834,-710 834,-710 1048,-710 1048,-710 1054,-710 1060,-716 1060,-722 1060,-722 1060,-770 1060,-770 1060,-776 1054,-782 1048,-782"/>
<text text-anchor="middle" x="941" y="-742.3" font-family="Arial" font-size="14.00">Mailer</text>
</g>
<!-- spa&#45;&gt;mailer -->
<g id="edge14" class="edge">
<title>spa&#45;&gt;mailer</title>
<path fill="none" stroke="black" stroke-width="2" d="M678.03,-718.5C678.03,-718.5 811.8,-718.5 811.8,-718.5"/>
<polygon fill="black" stroke="black" stroke-width="2" points="811.8,-722 821.8,-718.5 811.8,-715 811.8,-722"/>
</g>
<!-- ocpu_middleware -->
<g id="node6" class="node">
<title>ocpu_middleware</title>
<path fill="none" stroke="lightblue" stroke-width="5" d="M1048,-564C1048,-564 834,-564 834,-564 828,-564 822,-558 822,-552 822,-552 822,-504 822,-504 822,-498 828,-492 834,-492 834,-492 1048,-492 1048,-492 1054,-492 1060,-498 1060,-504 1060,-504 1060,-552 1060,-552 1060,-558 1054,-564 1048,-564"/>
<text text-anchor="middle" x="941" y="-531.8" font-family="Arial" font-size="14.00">OCPU middleware</text>
<text text-anchor="middle" x="941" y="-516.8" font-family="Arial" font-size="14.00"> for long running processes</text>
</g>
<!-- spa&#45;&gt;ocpu_middleware -->
<g id="edge15" class="edge">
<title>spa&#45;&gt;ocpu_middleware</title>
<path fill="none" stroke="black" stroke-width="2" d="M688.03,-659C688.03,-659 941,-659 941,-659 941,-659 941,-574.14 941,-574.14"/>
<polygon fill="black" stroke="black" stroke-width="2" points="688.03,-655.5 678.03,-659 688.03,-662.5 688.03,-655.5"/>
<polygon fill="black" stroke="black" stroke-width="2" points="944.5,-574.14 941,-564.14 937.5,-574.14 944.5,-574.14"/>
</g>
<!-- auth0 -->
<g id="node7" class="node">
<title>auth0</title>
<path fill="none" stroke="#90ee90" stroke-width="5" d="M1812,-1173C1812,-1173 1598,-1173 1598,-1173 1592,-1173 1586,-1167 1586,-1161 1586,-1161 1586,-1113 1586,-1113 1586,-1107 1592,-1101 1598,-1101 1598,-1101 1812,-1101 1812,-1101 1818,-1101 1824,-1107 1824,-1113 1824,-1113 1824,-1161 1824,-1161 1824,-1167 1818,-1173 1812,-1173"/>
<text text-anchor="middle" x="1705" y="-1140.8" font-family="Arial" font-size="14.00">Auth0</text>
<text text-anchor="middle" x="1705" y="-1125.8" font-family="Arial" font-size="14.00">Authentication Service</text>
</g>
<!-- spa&#45;&gt;auth0 -->
<g id="edge1" class="edge">
<title>spa&#45;&gt;auth0</title>
<path fill="none" stroke="black" stroke-width="2" d="M559,-737.32C559,-737.32 559,-1149 559,-1149 559,-1149 1575.87,-1149 1575.87,-1149"/>
<polygon fill="black" stroke="black" stroke-width="2" points="562.5,-737.32 559,-727.32 555.5,-737.32 562.5,-737.32"/>
<polygon fill="black" stroke="black" stroke-width="2" points="1575.87,-1152.5 1585.87,-1149 1575.87,-1145.5 1575.87,-1152.5"/>
</g>
<!-- ngx -->
<g id="node2" class="node">
<title>ngx</title>
<path fill="none" stroke="lightblue" stroke-width="5" d="M284,-727C284,-727 70,-727 70,-727 64,-727 58,-721 58,-715 58,-715 58,-667 58,-667 58,-661 64,-655 70,-655 70,-655 284,-655 284,-655 290,-655 296,-661 296,-667 296,-667 296,-715 296,-715 296,-721 290,-727 284,-727"/>
<text text-anchor="middle" x="177" y="-687.3" font-family="Arial" font-size="14.00">Nginx gateway</text>
</g>
<!-- ngx&#45;&gt;spa -->
<g id="edge9" class="edge">
<title>ngx&#45;&gt;spa</title>
<path fill="none" stroke="black" stroke-width="2" d="M306.03,-691C306.03,-691 429.8,-691 429.8,-691"/>
<polygon fill="black" stroke="black" stroke-width="2" points="429.8,-694.5 439.8,-691 429.8,-687.5 429.8,-694.5"/>
<polygon fill="black" stroke="black" stroke-width="2" points="306.03,-687.5 296.03,-691 306.03,-694.5 306.03,-687.5"/>
</g>
<!-- ocpu_api -->
<g id="node3" class="node">
<title>ocpu_api</title>
<path fill="none" stroke="lightblue" stroke-width="5" d="M1430,-564C1430,-564 1216,-564 1216,-564 1210,-564 1204,-558 1204,-552 1204,-552 1204,-504 1204,-504 1204,-498 1210,-492 1216,-492 1216,-492 1430,-492 1430,-492 1436,-492 1442,-498 1442,-504 1442,-504 1442,-552 1442,-552 1442,-558 1436,-564 1430,-564"/>
<text text-anchor="middle" x="1323" y="-539.3" font-family="Arial" font-size="14.00">OCPU API</text>
<text text-anchor="middle" x="1323" y="-524.3" font-family="Arial" font-size="14.00"> Using FHpredict R package</text>
<text text-anchor="middle" x="1323" y="-509.3" font-family="Arial" font-size="14.00">from KWB</text>
</g>
<!-- ocpu_api&#45;&gt;api -->
<g id="edge17" class="edge">
<title>ocpu_api&#45;&gt;api</title>
<path fill="none" stroke="black" stroke-width="2" d="M1452.03,-528C1452.03,-528 1575.8,-528 1575.8,-528"/>
<polygon fill="black" stroke="black" stroke-width="2" points="1575.8,-531.5 1585.8,-528 1575.8,-524.5 1575.8,-531.5"/>
<polygon fill="black" stroke="black" stroke-width="2" points="1452.03,-524.5 1442.03,-528 1452.03,-531.5 1452.03,-524.5"/>
</g>
<!-- ocpu_api&#45;&gt;auth0 -->
<g id="edge3" class="edge">
<title>ocpu_api&#45;&gt;auth0</title>
<path fill="none" stroke="black" stroke-width="2" d="M1323,-574C1323,-574 1323,-1125 1323,-1125 1323,-1125 1575.97,-1125 1575.97,-1125"/>
<polygon fill="black" stroke="black" stroke-width="2" points="1326.5,-574 1323,-564 1319.5,-574 1326.5,-574"/>
<polygon fill="black" stroke="black" stroke-width="2" points="1575.97,-1128.5 1585.97,-1125 1575.97,-1121.5 1575.97,-1128.5"/>
</g>
<!-- db -->
<g id="node14" class="node">
<title>db</title>
<path fill="none" stroke="tomato" stroke-width="5" d="M2576,-274C2576,-274 2362,-274 2362,-274 2356,-274 2350,-268 2350,-262 2350,-262 2350,-214 2350,-214 2350,-208 2356,-202 2362,-202 2362,-202 2576,-202 2576,-202 2582,-202 2588,-208 2588,-214 2588,-214 2588,-262 2588,-262 2588,-268 2582,-274 2576,-274"/>
<text text-anchor="middle" x="2469" y="-241.8" font-family="Arial" font-size="14.00">DB</text>
<text text-anchor="middle" x="2469" y="-226.8" font-family="Arial" font-size="14.00">Postgres with Postgis</text>
</g>
<!-- ocpu_api&#45;&gt;db -->
<g id="edge12" class="edge">
<title>ocpu_api&#45;&gt;db</title>
<path fill="none" stroke="black" stroke-width="2" d="M1363,-491.87C1363,-411.71 1363,-226 1363,-226 1363,-226 2339.85,-226 2339.85,-226"/>
<polygon fill="black" stroke="black" stroke-width="2" points="2339.85,-229.5 2349.85,-226 2339.85,-222.5 2339.85,-229.5"/>
</g>
<!-- radolan_api -->
<g id="node17" class="node">
<title>radolan_api</title>
<path fill="none" stroke="tomato" stroke-width="5" d="M2576,-130C2576,-130 2362,-130 2362,-130 2356,-130 2350,-124 2350,-118 2350,-118 2350,-70 2350,-70 2350,-64 2356,-58 2362,-58 2362,-58 2576,-58 2576,-58 2582,-58 2588,-64 2588,-70 2588,-70 2588,-118 2588,-118 2588,-124 2582,-130 2576,-130"/>
<text text-anchor="middle" x="2469" y="-105.3" font-family="Arial" font-size="14.00">Radolan Data API</text>
<text text-anchor="middle" x="2469" y="-90.3" font-family="Arial" font-size="14.00">AWS Lambda using</text>
<text text-anchor="middle" x="2469" y="-75.3" font-family="Arial" font-size="14.00">serverless framework</text>
</g>
<!-- ocpu_api&#45;&gt;radolan_api -->
<g id="edge26" class="edge">
<title>ocpu_api&#45;&gt;radolan_api</title>
<path fill="none" stroke="black" stroke-width="2" d="M1284,-491.74C1284,-387.44 1284,-94 1284,-94 1284,-94 2339.95,-94 2339.95,-94"/>
<polygon fill="black" stroke="black" stroke-width="2" points="2339.95,-97.5 2349.95,-94 2339.95,-90.5 2339.95,-97.5"/>
</g>
<!-- api&#45;&gt;auth0 -->
<g id="edge2" class="edge">
<title>api&#45;&gt;auth0</title>
<path fill="none" stroke="black" stroke-width="2" d="M1834.06,-546C1834.06,-546 1896,-546 1896,-546 1896,-546 1896,-1124.33 1896,-1124.33 1896,-1124.33 1834.06,-1124.33 1834.06,-1124.33"/>
<polygon fill="black" stroke="black" stroke-width="2" points="1834.06,-542.5 1824.06,-546 1834.06,-549.5 1834.06,-542.5"/>
<polygon fill="black" stroke="black" stroke-width="2" points="1834.06,-1120.83 1824.06,-1124.33 1834.06,-1127.83 1834.06,-1120.83"/>
</g>
<!-- api&#45;&gt;db -->
<g id="edge11" class="edge">
<title>api&#45;&gt;db</title>
<path fill="none" stroke="black" stroke-width="2" d="M1705,-491.94C1705,-416.72 1705,-250 1705,-250 1705,-250 2339.62,-250 2339.62,-250"/>
<polygon fill="black" stroke="black" stroke-width="2" points="2339.63,-253.5 2349.62,-250 2339.62,-246.5 2339.63,-253.5"/>
</g>
<!-- redis -->
<g id="node15" class="node">
<title>redis</title>
<path fill="none" stroke="tomato" stroke-width="5" d="M2576,-418C2576,-418 2362,-418 2362,-418 2356,-418 2350,-412 2350,-406 2350,-406 2350,-358 2350,-358 2350,-352 2356,-346 2362,-346 2362,-346 2576,-346 2576,-346 2582,-346 2588,-352 2588,-358 2588,-358 2588,-406 2588,-406 2588,-412 2582,-418 2576,-418"/>
<text text-anchor="middle" x="2469" y="-385.8" font-family="Arial" font-size="14.00">In Memory DB</text>
<text text-anchor="middle" x="2469" y="-370.8" font-family="Arial" font-size="14.00">Redis</text>
</g>
<!-- api&#45;&gt;redis -->
<g id="edge13" class="edge">
<title>api&#45;&gt;redis</title>
<path fill="none" stroke="black" stroke-width="2" d="M1834.38,-510C1834.38,-510 2469,-510 2469,-510 2469,-510 2469,-428.34 2469,-428.34"/>
<polygon fill="black" stroke="black" stroke-width="2" points="1834.38,-506.5 1824.38,-510 1834.37,-513.5 1834.38,-506.5"/>
<polygon fill="black" stroke="black" stroke-width="2" points="2472.5,-428.34 2469,-418.34 2465.5,-428.34 2472.5,-428.34"/>
</g>
<!-- s3 -->
<g id="node16" class="node">
<title>s3</title>
<path fill="none" stroke="tomato" stroke-width="5" d="M2958,-418C2958,-418 2744,-418 2744,-418 2738,-418 2732,-412 2732,-406 2732,-406 2732,-358 2732,-358 2732,-352 2738,-346 2744,-346 2744,-346 2958,-346 2958,-346 2964,-346 2970,-352 2970,-358 2970,-358 2970,-406 2970,-406 2970,-412 2964,-418 2958,-418"/>
<text text-anchor="middle" x="2851" y="-385.8" font-family="Arial" font-size="14.00">public file storage</text>
<text text-anchor="middle" x="2851" y="-370.8" font-family="Arial" font-size="14.00">S3</text>
</g>
<!-- api&#45;&gt;s3 -->
<g id="edge18" class="edge">
<title>api&#45;&gt;s3</title>
<path fill="none" stroke="black" stroke-width="2" d="M1834.04,-528C1834.04,-528 2772,-528 2772,-528 2772,-528 2772,-428.09 2772,-428.09"/>
<polygon fill="black" stroke="black" stroke-width="2" points="1834.04,-524.5 1824.04,-528 1834.04,-531.5 1834.04,-524.5"/>
<polygon fill="black" stroke="black" stroke-width="2" points="2775.5,-428.09 2772,-418.09 2768.5,-428.09 2775.5,-428.09"/>
</g>
<!-- ocpu_middleware&#45;&gt;ocpu_api -->
<g id="edge16" class="edge">
<title>ocpu_middleware&#45;&gt;ocpu_api</title>
<path fill="none" stroke="black" stroke-width="2" d="M1070.03,-528C1070.03,-528 1193.8,-528 1193.8,-528"/>
<polygon fill="black" stroke="black" stroke-width="2" points="1193.8,-531.5 1203.8,-528 1193.8,-524.5 1193.8,-531.5"/>
<polygon fill="black" stroke="black" stroke-width="2" points="1070.03,-524.5 1060.03,-528 1070.03,-531.5 1070.03,-524.5"/>
</g>
<!-- pipedream -->
<g id="node8" class="node">
<title>pipedream</title>
<path fill="none" stroke="#90ee90" stroke-width="5" d="M1812,-1029C1812,-1029 1598,-1029 1598,-1029 1592,-1029 1586,-1023 1586,-1017 1586,-1017 1586,-969 1586,-969 1586,-963 1592,-957 1598,-957 1598,-957 1812,-957 1812,-957 1818,-957 1824,-963 1824,-969 1824,-969 1824,-1017 1824,-1017 1824,-1023 1818,-1029 1812,-1029"/>
<text text-anchor="middle" x="1705" y="-996.8" font-family="Arial" font-size="14.00">Pipedream</text>
<text text-anchor="middle" x="1705" y="-981.8" font-family="Arial" font-size="14.00">Cronjob Service</text>
</g>
<!-- github_actions -->
<g id="node9" class="node">
<title>github_actions</title>
<path fill="none" stroke="#90ee90" stroke-width="5" d="M2194,-1029C2194,-1029 1980,-1029 1980,-1029 1974,-1029 1968,-1023 1968,-1017 1968,-1017 1968,-969 1968,-969 1968,-963 1974,-957 1980,-957 1980,-957 2194,-957 2194,-957 2200,-957 2206,-963 2206,-969 2206,-969 2206,-1017 2206,-1017 2206,-1023 2200,-1029 2194,-1029"/>
<text text-anchor="middle" x="2087" y="-996.8" font-family="Arial" font-size="14.00">Github Actions</text>
<text text-anchor="middle" x="2087" y="-981.8" font-family="Arial" font-size="14.00">Cronjob Runner Service</text>
</g>
<!-- pipedream&#45;&gt;github_actions -->
<g id="edge4" class="edge">
<title>pipedream&#45;&gt;github_actions</title>
<path fill="none" stroke="black" stroke-width="2" d="M1824.03,-993C1824.03,-993 1957.8,-993 1957.8,-993"/>
<polygon fill="black" stroke="black" stroke-width="2" points="1957.8,-996.5 1967.8,-993 1957.8,-989.5 1957.8,-996.5"/>
</g>
<!-- cronbot -->
<g id="node10" class="node">
<title>cronbot</title>
<path fill="none" stroke="black" stroke-width="5" d="M2576,-883C2576,-883 2362,-883 2362,-883 2356,-883 2350,-877 2350,-871 2350,-871 2350,-823 2350,-823 2350,-817 2356,-811 2362,-811 2362,-811 2576,-811 2576,-811 2582,-811 2588,-817 2588,-823 2588,-823 2588,-871 2588,-871 2588,-877 2582,-883 2576,-883"/>
<text text-anchor="middle" x="2469" y="-850.8" font-family="Arial" font-size="14.00">Cronbot</text>
<text text-anchor="middle" x="2469" y="-835.8" font-family="Arial" font-size="14.00">Collect User data and predict</text>
</g>
<!-- github_actions&#45;&gt;cronbot -->
<g id="edge5" class="edge">
<title>github_actions&#45;&gt;cronbot</title>
<path fill="none" stroke="black" stroke-width="2" d="M2127,-956.74C2127,-917.05 2127,-859 2127,-859 2127,-859 2339.87,-859 2339.87,-859"/>
<polygon fill="black" stroke="black" stroke-width="2" points="2339.87,-862.5 2349.87,-859 2339.87,-855.5 2339.87,-862.5"/>
</g>
<!-- radolan_recent_to_s3 -->
<g id="node11" class="node">
<title>radolan_recent_to_s3</title>
<path fill="none" stroke="black" stroke-width="5" d="M2576,-1171C2576,-1171 2362,-1171 2362,-1171 2356,-1171 2350,-1165 2350,-1159 2350,-1159 2350,-1111 2350,-1111 2350,-1105 2356,-1099 2362,-1099 2362,-1099 2576,-1099 2576,-1099 2582,-1099 2588,-1105 2588,-1111 2588,-1111 2588,-1159 2588,-1159 2588,-1165 2582,-1171 2576,-1171"/>
<text text-anchor="middle" x="2469" y="-1138.8" font-family="Arial" font-size="14.00">Radolan</text>
<text text-anchor="middle" x="2469" y="-1123.8" font-family="Arial" font-size="14.00">Scraper DWD to S3</text>
</g>
<!-- github_actions&#45;&gt;radolan_recent_to_s3 -->
<g id="edge6" class="edge">
<title>github_actions&#45;&gt;radolan_recent_to_s3</title>
<path fill="none" stroke="black" stroke-width="2" d="M2087,-1029.26C2087,-1074.98 2087,-1147.67 2087,-1147.67 2087,-1147.67 2339.97,-1147.67 2339.97,-1147.67"/>
<polygon fill="black" stroke="black" stroke-width="2" points="2339.97,-1151.17 2349.97,-1147.67 2339.97,-1144.17 2339.97,-1151.17"/>
</g>
<!-- data_pred_merge -->
<g id="node12" class="node">
<title>data_pred_merge</title>
<path fill="none" stroke="black" stroke-width="5" d="M2576,-739C2576,-739 2362,-739 2362,-739 2356,-739 2350,-733 2350,-727 2350,-727 2350,-679 2350,-679 2350,-673 2356,-667 2362,-667 2362,-667 2576,-667 2576,-667 2582,-667 2588,-673 2588,-679 2588,-679 2588,-727 2588,-727 2588,-733 2582,-739 2576,-739"/>
<text text-anchor="middle" x="2469" y="-714.3" font-family="Arial" font-size="14.00">LAGESO</text>
<text text-anchor="middle" x="2469" y="-699.3" font-family="Arial" font-size="14.00">Collect predictions</text>
<text text-anchor="middle" x="2469" y="-684.3" font-family="Arial" font-size="14.00"> and merge with data from lageso</text>
</g>
<!-- github_actions&#45;&gt;data_pred_merge -->
<g id="edge7" class="edge">
<title>github_actions&#45;&gt;data_pred_merge</title>
<path fill="none" stroke="black" stroke-width="2" d="M2048,-956.79C2048,-883.5 2048,-724.5 2048,-724.5 2048,-724.5 2339.77,-724.5 2339.77,-724.5"/>
<polygon fill="black" stroke="black" stroke-width="2" points="2339.77,-728 2349.77,-724.5 2339.77,-721 2339.77,-728"/>
</g>
<!-- data_transfer -->
<g id="node13" class="node">
<title>data_transfer</title>
<path fill="none" stroke="black" stroke-width="5" d="M2576,-1027C2576,-1027 2362,-1027 2362,-1027 2356,-1027 2350,-1021 2350,-1015 2350,-1015 2350,-967 2350,-967 2350,-961 2356,-955 2362,-955 2362,-955 2576,-955 2576,-955 2582,-955 2588,-961 2588,-967 2588,-967 2588,-1015 2588,-1015 2588,-1021 2582,-1027 2576,-1027"/>
<text text-anchor="middle" x="2469" y="-994.8" font-family="Arial" font-size="14.00">BWB</text>
<text text-anchor="middle" x="2469" y="-979.8" font-family="Arial" font-size="14.00">Scrape public data from BWB to S3</text>
</g>
<!-- github_actions&#45;&gt;data_transfer -->
<g id="edge8" class="edge">
<title>github_actions&#45;&gt;data_transfer</title>
<path fill="none" stroke="black" stroke-width="2" d="M2206.03,-992C2206.03,-992 2339.8,-992 2339.8,-992"/>
<polygon fill="black" stroke="black" stroke-width="2" points="2339.8,-995.5 2349.8,-992 2339.8,-988.5 2339.8,-995.5"/>
</g>
<!-- cronbot&#45;&gt;api -->
<g id="edge23" class="edge">
<title>cronbot&#45;&gt;api</title>
<path fill="none" stroke="black" stroke-width="2" d="M2349.62,-835C2134.75,-835 1705,-835 1705,-835 1705,-835 1705,-574.12 1705,-574.12"/>
<polygon fill="black" stroke="black" stroke-width="2" points="1708.5,-574.12 1705,-564.12 1701.5,-574.12 1708.5,-574.12"/>
</g>
<!-- cronbot&#45;&gt;s3 -->
<g id="edge22" class="edge">
<title>cronbot&#45;&gt;s3</title>
<path fill="none" stroke="black" stroke-width="2" d="M2598.03,-847C2598.03,-847 2851,-847 2851,-847 2851,-847 2851,-527.35 2851,-418.1"/>
<polygon fill="black" stroke="black" stroke-width="2" points="2598.03,-843.5 2588.03,-847 2598.03,-850.5 2598.03,-843.5"/>
</g>
<!-- radolan_recent_to_s3&#45;&gt;s3 -->
<g id="edge24" class="edge">
<title>radolan_recent_to_s3&#45;&gt;s3</title>
<path fill="none" stroke="black" stroke-width="2" d="M2588.28,-1135C2725.17,-1135 2931,-1135 2931,-1135 2931,-1135 2931,-428.07 2931,-428.07"/>
<polygon fill="black" stroke="black" stroke-width="2" points="2934.5,-428.07 2931,-418.07 2927.5,-428.07 2934.5,-428.07"/>
</g>
<!-- data_pred_merge&#45;&gt;api -->
<g id="edge19" class="edge">
<title>data_pred_merge&#45;&gt;api</title>
<path fill="none" stroke="black" stroke-width="2" d="M2349.97,-688.5C2149.23,-688.5 1765,-688.5 1765,-688.5 1765,-688.5 1765,-574.02 1765,-574.02"/>
<polygon fill="black" stroke="black" stroke-width="2" points="1768.5,-574.02 1765,-564.02 1761.5,-574.02 1768.5,-574.02"/>
</g>
<!-- data_pred_merge&#45;&gt;s3 -->
<g id="edge21" class="edge">
<title>data_pred_merge&#45;&gt;s3</title>
<path fill="none" stroke="black" stroke-width="2" d="M2588,-703C2687.07,-703 2812,-703 2812,-703 2812,-703 2812,-428.2 2812,-428.2"/>
<polygon fill="black" stroke="black" stroke-width="2" points="2815.5,-428.2 2812,-418.2 2808.5,-428.2 2815.5,-428.2"/>
</g>
<!-- data_transfer&#45;&gt;s3 -->
<g id="edge20" class="edge">
<title>data_transfer&#45;&gt;s3</title>
<path fill="none" stroke="black" stroke-width="2" d="M2588.24,-991C2713.03,-991 2891,-991 2891,-991 2891,-991 2891,-428.27 2891,-428.27"/>
<polygon fill="black" stroke="black" stroke-width="2" points="2894.5,-428.27 2891,-418.27 2887.5,-428.27 2894.5,-428.27"/>
</g>
<!-- radolan_api&#45;&gt;s3 -->
<g id="edge25" class="edge">
<title>radolan_api&#45;&gt;s3</title>
<path fill="none" stroke="black" stroke-width="2" d="M2598.03,-94C2598.03,-94 2851,-94 2851,-94 2851,-94 2851,-268.47 2851,-345.82"/>
<polygon fill="black" stroke="black" stroke-width="2" points="2598.03,-90.5 2588.03,-94 2598.03,-97.5 2598.03,-90.5"/>
</g>
</g>
</svg>
